<?xml version="1.0" standalone="no"?>
<!DOCTYPE svg PUBLIC "-//W3C//DTD SVG 20010904//EN"
 "http://www.w3.org/TR/2001/REC-SVG-20010904/DTD/svg10.dtd">
<svg version="1.0" xmlns="http://www.w3.org/2000/svg"
 width="2400.000000pt" height="2400.000000pt" viewBox="0 0 2400.000000 2400.000000"
 preserveAspectRatio="xMidYMid meet">
<metadata>
Created by potrace 1.14, written by Peter Selinger 2001-2017
</metadata>
<g transform="translate(0.000000,2400.000000) scale(0.100000,-0.100000)"
fill="#000000" stroke="none">
<path d="M11588 23995 c-2 -1 -73 -6 -158 -9 -85 -3 -177 -8 -205 -11 -27 -2
-88 -7 -135 -10 -47 -3 -103 -7 -125 -9 -22 -3 -76 -8 -120 -12 -96 -8 -101
-9 -235 -24 -135 -15 -139 -15 -310 -40 -80 -12 -158 -23 -175 -25 -16 -3 -41
-7 -55 -10 -14 -3 -43 -7 -65 -11 -22 -3 -78 -12 -125 -21 -47 -8 -96 -17
-110 -20 -13 -2 -56 -11 -95 -19 -38 -8 -86 -17 -105 -20 -19 -3 -43 -7 -52
-10 -10 -3 -30 -8 -45 -10 -25 -5 -124 -28 -303 -70 -36 -9 -73 -17 -83 -19
-10 -2 -51 -13 -91 -24 -40 -11 -83 -22 -97 -25 -13 -3 -103 -28 -199 -56 -96
-29 -188 -55 -205 -59 -131 -34 -850 -289 -999 -355 -17 -8 -96 -41 -176 -74
-80 -33 -185 -79 -235 -102 -49 -22 -117 -53 -150 -68 -96 -42 -616 -306 -662
-335 -24 -15 -45 -27 -48 -27 -3 0 -52 -26 -108 -59 -56 -32 -124 -71 -152
-87 -27 -15 -73 -42 -102 -61 -29 -18 -55 -33 -58 -33 -3 0 -18 -8 -33 -19
-15 -10 -90 -58 -167 -106 -184 -116 -467 -307 -641 -433 -137 -100 -464 -349
-474 -362 -3 -3 -41 -35 -85 -70 -93 -75 -208 -171 -215 -179 -3 -4 -21 -19
-40 -35 -19 -15 -53 -45 -75 -65 -22 -20 -65 -58 -95 -85 -313 -283 -753 -725
-957 -962 -10 -12 -43 -50 -73 -85 -167 -192 -164 -188 -321 -384 -285 -356
-532 -703 -785 -1100 -79 -124 -208 -339 -258 -430 -16 -27 -31 -54 -36 -60
-4 -5 -31 -55 -60 -110 -29 -55 -56 -104 -60 -110 -4 -5 -53 -99 -109 -207
-354 -688 -642 -1416 -861 -2178 -49 -172 -147 -551 -164 -640 -3 -14 -12 -56
-21 -95 -17 -79 -16 -72 -45 -215 -12 -58 -23 -116 -25 -130 -2 -14 -9 -50
-15 -80 -6 -30 -13 -68 -15 -85 -3 -16 -12 -73 -20 -125 -24 -145 -48 -312
-61 -422 -3 -29 -7 -64 -10 -78 -2 -14 -6 -52 -9 -85 -4 -33 -8 -73 -10 -90
-2 -16 -7 -61 -10 -100 -4 -38 -8 -90 -11 -115 -10 -104 -19 -238 -31 -470
-15 -281 -8 -1122 12 -1345 2 -27 7 -88 10 -135 9 -130 22 -278 30 -345 3 -22
7 -62 10 -90 6 -69 15 -146 20 -171 2 -12 6 -48 10 -80 4 -33 9 -70 11 -84 6
-38 25 -161 30 -200 2 -19 6 -46 9 -60 3 -14 7 -36 10 -50 58 -344 120 -643
191 -920 20 -80 37 -149 38 -155 16 -73 172 -601 206 -695 5 -14 30 -86 55
-160 25 -74 52 -151 60 -170 8 -19 30 -78 49 -130 71 -193 165 -423 249 -610
11 -25 28 -63 37 -85 40 -92 62 -141 71 -155 5 -8 12 -24 16 -35 4 -11 66
-137 138 -280 123 -242 157 -307 215 -410 12 -22 38 -69 58 -105 19 -36 43
-77 53 -92 11 -14 19 -29 19 -32 0 -3 37 -65 82 -138 44 -73 90 -149 101 -168
47 -81 373 -566 468 -697 100 -136 328 -435 366 -480 24 -28 40 -48 88 -108
22 -27 42 -52 45 -55 3 -3 46 -52 94 -110 49 -58 118 -137 153 -176 35 -40 73
-82 84 -95 153 -176 674 -698 848 -848 12 -11 55 -49 95 -84 39 -35 87 -77
106 -93 19 -16 44 -37 55 -48 11 -10 67 -57 125 -104 58 -48 110 -91 116 -97
6 -5 28 -23 50 -40 33 -26 95 -75 130 -104 6 -5 87 -66 180 -135 93 -69 174
-129 179 -134 109 -86 690 -469 835 -550 25 -14 56 -32 70 -42 33 -22 215
-126 315 -181 44 -23 116 -63 160 -86 158 -87 604 -303 800 -388 110 -48 214
-93 230 -100 17 -7 86 -36 155 -63 69 -27 134 -53 145 -57 11 -5 22 -9 25 -9
3 -1 37 -14 75 -28 263 -99 827 -284 925 -303 11 -2 24 -6 29 -9 15 -10 464
-123 616 -156 221 -47 543 -110 635 -124 19 -3 107 -17 195 -30 88 -14 183
-27 210 -31 28 -3 61 -8 75 -10 14 -2 52 -6 85 -10 33 -4 74 -8 90 -10 46 -6
123 -13 200 -20 39 -3 86 -8 105 -10 45 -5 165 -15 255 -20 283 -17 399 -20
775 -20 432 0 638 7 925 30 44 3 103 8 130 10 61 4 167 14 215 20 19 2 60 7
90 10 100 11 125 14 160 20 19 2 54 7 78 10 108 13 229 30 282 40 8 2 51 8 95
15 44 7 89 14 100 16 24 5 119 22 160 30 17 2 75 14 130 25 55 11 111 23 125
25 14 3 41 9 60 14 19 5 50 12 67 15 18 3 90 19 160 36 71 17 136 32 146 34
10 2 51 13 91 24 40 11 83 22 97 25 13 3 103 28 199 56 96 28 184 54 195 57
11 2 27 7 35 10 8 3 20 7 26 8 12 3 138 43 164 53 8 3 20 6 25 8 85 22 639
226 760 279 17 7 81 34 142 59 109 45 263 112 408 179 113 51 626 311 672 340
24 15 45 27 48 27 4 0 81 44 173 97 92 53 178 103 192 110 14 8 55 33 92 56
37 23 99 61 138 85 107 66 388 253 540 360 124 88 538 397 550 411 3 3 39 33
80 66 89 70 108 87 124 100 6 6 38 33 71 60 51 43 93 79 139 120 6 6 47 41 91
80 231 202 541 504 787 765 69 74 135 144 145 156 30 35 137 156 148 168 43
47 199 234 327 391 95 116 366 476 418 555 8 12 29 41 46 64 31 42 201 293
219 323 12 21 72 114 82 129 5 5 13 19 20 30 36 58 159 261 168 276 124 213
159 274 188 328 19 36 58 108 87 160 113 207 308 615 427 890 222 515 415
1070 558 1600 24 89 78 299 81 313 2 10 5 26 8 35 3 9 7 28 10 42 3 14 7 34
10 45 8 36 55 249 59 275 3 14 15 72 27 130 12 58 23 121 26 140 2 19 7 42 9
50 3 8 7 33 10 55 11 69 14 88 29 180 9 50 25 162 36 250 11 88 22 174 25 190
5 35 14 112 20 175 2 25 7 72 11 105 3 33 7 78 9 100 2 22 6 81 10 130 24 315
30 511 29 945 0 371 -6 630 -19 750 -1 19 -6 82 -10 140 -3 58 -8 119 -10 135
-3 17 -7 62 -10 100 -7 98 -19 216 -29 277 -3 18 -8 56 -10 83 -3 28 -10 83
-16 123 -5 40 -12 94 -15 120 -3 26 -8 54 -10 62 -3 8 -7 38 -10 65 -3 28 -8
57 -10 65 -2 8 -6 29 -9 45 -5 32 -26 147 -52 293 -8 48 -22 114 -29 147 -8
33 -17 78 -21 100 -3 22 -8 43 -10 46 -2 3 -6 21 -9 40 -37 216 -292 1117
-375 1324 -4 11 -22 58 -38 105 -68 191 -183 490 -217 565 -8 16 -25 58 -39
92 -15 35 -37 86 -50 115 -13 29 -56 123 -94 208 -101 222 -274 564 -394 780
-17 30 -42 75 -56 100 -69 125 -263 445 -369 609 -109 168 -321 478 -360 526
-4 6 -60 80 -123 164 -63 85 -128 171 -145 191 -16 20 -41 52 -55 70 -27 37
-69 88 -133 165 -59 70 -279 328 -292 341 -5 6 -48 53 -95 105 -309 340 -753
772 -1055 1027 -133 112 -213 180 -229 192 -10 8 -37 31 -60 50 -24 19 -58 46
-76 60 -19 14 -48 37 -64 51 -17 14 -105 81 -196 148 -91 67 -172 128 -180
134 -127 100 -691 472 -840 555 -25 13 -49 28 -55 32 -5 4 -26 17 -45 28 -19
11 -75 43 -123 71 -48 28 -92 51 -97 51 -6 0 -10 4 -10 9 0 5 -12 14 -27 20
-16 5 -68 33 -118 60 -158 89 -663 336 -875 429 -222 97 -537 223 -745 298
-71 25 -139 50 -150 54 -45 19 -402 132 -580 184 -252 73 -686 183 -830 210
-11 2 -78 16 -150 30 -157 32 -170 34 -215 42 -19 3 -55 9 -80 14 -25 5 -61
12 -80 14 -19 3 -107 17 -195 30 -88 14 -184 28 -214 31 -30 4 -63 8 -73 10
-11 2 -49 7 -86 10 -37 3 -74 8 -82 10 -8 2 -49 7 -90 10 -41 4 -86 8 -100 10
-14 2 -65 7 -115 10 -49 4 -106 8 -125 10 -19 2 -89 6 -155 10 -66 4 -140 9
-165 11 -53 5 -1007 14 -1012 9z"/>
</g>
</svg>
